<svg width="414" height="423" viewBox="0 0 414 423" fill="none" xmlns="http://www.w3.org/2000/svg">
<path fill-rule="evenodd" clip-rule="evenodd" d="M304.662 56.8585C312.615 52.8819 320.572 44.9245 328.525 40.9485C330.911 40.1516 330.911 40.1516 330.114 44.1321C327.728 60.8351 327.728 68.7921 332.501 84.6981C341.251 114.925 334.888 119.698 304.661 133.221C266.477 149.924 264.095 149.131 233.071 174.584C222.731 183.334 223.524 168.221 222.731 161.857C221.141 149.923 216.368 141.97 213.981 131.63C213.981 129.243 213.981 129.243 218.754 129.243C241.82 131.63 270.457 139.583 291.938 129.243C300.688 124.47 316.598 104.583 307.848 106.177C299.895 107.767 295.121 107.767 287.164 106.177C285.575 105.381 285.575 105.381 287.961 103.791C317.395 79.9277 281.598 74.3567 283.188 64.8137C283.985 58.4504 299.098 58.4504 304.665 56.8606L304.662 56.8585Z" fill="#E20000"/>
<path fill-rule="evenodd" clip-rule="evenodd" d="M296.702 143.568C297.498 157.091 264.886 194.478 244.202 193.681C236.249 193.681 231.475 190.498 225.112 186.521C222.725 184.931 220.338 183.338 218.748 182.545C217.159 181.748 216.362 181.748 219.545 180.955C239.432 177.771 238.635 174.592 250.568 163.455C256.135 158.681 296.705 140.389 296.705 143.568L296.702 143.568Z" fill="#E20000"/>
<path fill-rule="evenodd" clip-rule="evenodd" d="M221.932 118.909C230.682 114.135 233.866 108.569 242.616 106.975C247.389 106.178 253.753 108.564 258.526 108.564C268.866 108.564 280.003 111.748 291.139 112.541C295.912 112.541 299.889 111.744 300.686 112.541C311.823 120.494 277.62 131.631 268.87 131.631C264.096 131.631 219.554 126.065 217.167 123.678C215.577 122.088 213.19 122.881 221.94 118.905L221.932 118.909Z" fill="#E20000"/>
<path fill-rule="evenodd" clip-rule="evenodd" d="M276.022 58.4485C279.998 63.2219 278.408 67.1985 287.159 75.9485C311.819 100.609 263.296 116.515 250.569 100.609C250.569 99.8116 265.682 96.6319 271.253 83.9055C273.639 79.9289 274.436 75.1555 274.436 70.3825C274.436 67.1989 272.05 59.2455 272.846 57.6555C273.643 56.8586 275.233 56.8586 276.03 58.4524L276.022 58.4485Z" fill="#E20000"/>
<path fill-rule="evenodd" clip-rule="evenodd" d="M268.862 52.0885C265.678 36.1785 250.565 36.1785 237.839 40.1545C236.249 40.9513 213.179 48.1076 213.179 48.1076C212.382 48.9044 215.565 49.6974 219.542 50.4943C237.839 54.4709 262.495 55.2677 261.702 80.7213C261.702 85.4947 259.315 89.4713 260.112 90.2682C265.679 94.2448 269.659 58.4522 268.862 52.0842L268.862 52.0885Z" fill="#E20000"/>
<path fill-rule="evenodd" clip-rule="evenodd" d="M256.142 69.5885C264.892 84.7015 250.575 104.589 238.642 97.4285C233.075 94.2449 225.119 86.2915 221.142 80.7255C215.575 72.7724 217.958 68.7915 216.368 65.6125C214.778 62.4289 204.434 60.8391 202.845 57.6594C200.458 52.886 215.572 49.7063 225.911 68.7964C226.708 69.5933 232.274 82.3194 237.845 87.0934C243.412 91.07 248.982 87.8903 249.779 82.32C251.369 71.98 233.076 65.617 226.713 60.047C225.123 58.4572 224.326 57.6603 225.123 56.8634C225.92 56.8634 228.307 56.0665 230.69 56.8634C242.624 59.2501 250.577 60.047 256.143 69.5904L256.142 69.5885Z" fill="#E20000"/>
<path fill-rule="evenodd" clip-rule="evenodd" d="M224.322 99.0186C221.935 96.6319 208.412 88.6786 206.025 90.2686C200.458 93.4522 218.752 151.519 220.341 161.066C220.341 165.042 218.751 177.769 212.388 178.566C203.638 180.155 191.704 147.543 190.115 139.589C189.318 130.042 196.478 124.476 197.275 115.726C198.072 110.952 194.888 94.2486 194.888 86.2916C194.888 83.108 194.888 67.9946 200.454 67.9946C202.044 68.7915 213.977 79.1316 216.364 81.5176C219.548 84.7012 232.274 99.0176 233.067 102.202C235.454 110.155 216.364 118.905 213.18 112.542C212.384 109.358 215.567 109.358 217.954 109.358C223.52 108.561 229.091 105.381 224.317 99.018L224.322 99.0186Z" fill="#E20000"/>
<path fill-rule="evenodd" clip-rule="evenodd" d="M198.072 171.409C198.869 168.225 197.275 161.862 194.095 156.296C187.732 141.98 176.595 137.999 189.322 124.48C196.482 116.526 196.482 79.9326 182.958 95.0456C175.798 102.206 178.185 137.999 178.982 148.343C179.779 159.48 182.958 167.433 192.505 173.003C195.688 174.592 198.071 174.592 198.071 171.413L198.072 171.409Z" fill="#E20000"/>
<path fill-rule="evenodd" clip-rule="evenodd" d="M164.662 52.8785C167.048 53.6753 170.228 57.6519 173.412 62.4254C186.139 82.3124 174.209 105.378 172.615 127.652C172.615 132.426 175.798 165.039 175.001 165.039C174.205 166.629 171.025 165.836 166.251 161.856C156.705 152.309 152.728 135.606 155.114 121.29C156.704 106.974 165.454 100.606 170.227 87.8798C171.024 84.6962 171.024 67.1958 168.638 68.7898C167.841 69.5866 160.685 96.6298 156.704 102.993C154.317 106.969 151.93 110.153 151.137 110.946C149.547 112.536 149.547 111.743 149.547 108.559C153.524 91.8562 157.501 81.5122 161.481 67.1962C162.278 64.0126 162.278 52.0832 164.665 52.8802L164.662 52.8785Z" fill="#E20000"/>
<path fill-rule="evenodd" clip-rule="evenodd" d="M283.182 52.8785C283.182 25.0385 281.592 15.4915 252.955 16.2885C244.205 16.2885 237.045 13.9018 226.705 16.2885C206.021 20.2651 202.045 37.7655 196.478 55.2655C194.888 60.8319 193.294 65.6055 194.091 66.4025C194.888 68.7892 203.638 47.3125 205.228 45.7185C208.411 42.5349 248.978 32.9915 253.751 32.9915C271.251 34.5813 268.864 43.3315 274.435 52.0815C276.822 54.4682 283.185 60.0346 283.185 52.8784L283.182 52.8785Z" fill="#E20000"/>
<path fill-rule="evenodd" clip-rule="evenodd" d="M199.662 28.2185C171.025 52.0815 182.162 96.6285 189.322 81.5155C195.685 65.6055 186.138 61.6285 202.845 32.9925C205.231 29.8089 206.028 25.8323 206.028 25.0394C205.231 23.4496 215.575 15.4925 199.665 28.223L199.662 28.2185Z" fill="#E20000"/>
<path fill-rule="evenodd" clip-rule="evenodd" d="M336.482 122.879C396.935 168.219 348.416 163.445 337.278 196.063C324.551 234.247 340.462 238.223 289.551 229.473C265.688 225.496 265.688 227.883 250.574 207.996C247.391 204.019 244.211 200.835 246.598 199.246C248.188 197.656 255.348 196.859 261.711 193.679C273.645 187.316 302.277 152.316 300.688 140.382C300.688 137.199 334.098 121.292 336.485 122.882L336.482 122.879Z" fill="#E20000"/>
<path fill-rule="evenodd" clip-rule="evenodd" d="M207.612 243.789C195.678 242.199 170.225 233.449 158.296 229.473C143.98 223.906 128.862 209.586 128.069 193.676C127.272 181.742 138.409 161.86 151.135 159.473C159.088 158.676 167.045 168.223 179.772 169.813C179.772 169.813 201.249 180.153 210.795 181.747C213.978 182.543 216.361 182.543 217.955 184.133C222.728 188.907 221.138 192.883 233.068 198.449C271.252 215.949 237.841 248.562 207.615 243.789L207.612 243.789Z" fill="#E20000"/>
<path fill-rule="evenodd" clip-rule="evenodd" d="M124.892 112.539C117.731 110.152 85.9146 94.2415 81.9386 99.8115C77.1652 105.378 73.1886 142.765 74.7784 149.925C81.1417 172.991 88.3014 169.015 105.801 176.972C139.211 192.085 128.074 167.425 138.414 158.675C159.098 142.765 147.961 119.698 124.891 112.538L124.892 112.539Z" fill="#E20000"/>
<path fill-rule="evenodd" clip-rule="evenodd" d="M215.572 11.5186C202.845 -9.95844 175.799 3.56545 159.888 12.3154C148.751 18.6787 128.072 19.4756 123.298 22.6554C120.114 25.0421 123.298 27.4288 123.298 33.7924C123.298 50.4954 116.137 63.2264 120.114 84.7024C122.501 98.2254 136.817 114.929 147.161 123.679C149.548 125.269 150.345 124.476 149.548 122.09C141.595 86.2926 155.114 83.1126 159.095 51.2926C159.095 48.9059 159.095 48.109 160.684 47.316C164.661 45.7262 177.387 60.043 178.184 59.25C178.981 57.6602 179.774 51.2969 180.571 47.316C186.934 21.863 220.344 19.476 215.571 11.519L215.572 11.5186Z" fill="#E20000"/>
<path fill-rule="evenodd" clip-rule="evenodd" d="M359.542 190.499C362.725 191.296 362.725 192.885 365.905 193.682C375.452 198.456 372.268 195.272 380.221 201.635C381.811 202.432 384.994 203.225 388.174 204.819C396.127 208.003 392.151 210.385 393.74 211.979C394.537 212.776 397.717 214.366 400.104 215.163C406.467 219.139 402.49 219.936 402.49 223.116C403.287 224.706 405.674 234.253 405.674 234.253C407.264 236.64 415.221 242.206 412.834 242.206C408.858 242.206 399.311 240.616 396.924 241.409C394.537 242.206 399.311 244.593 391.358 245.386C388.174 246.183 384.995 246.183 383.405 246.975C377.041 250.159 381.018 250.159 369.882 249.362C365.905 248.565 363.518 247.772 362.722 248.565C361.925 249.362 364.311 254.929 354.768 248.565C351.585 246.179 347.608 242.999 345.222 242.202C341.245 241.405 342.835 248.565 338.061 239.018C332.495 227.881 334.878 219.131 346.811 215.155C349.995 213.566 361.924 219.929 365.108 221.519C370.675 223.905 395.335 235.835 395.335 235.042C394.538 235.042 392.949 233.452 388.175 230.268C377.835 224.702 365.902 218.334 355.562 214.358C331.699 204.018 331.699 181.745 359.539 190.495L359.542 190.499Z" fill="#034732"/>
<path fill-rule="evenodd" clip-rule="evenodd" d="M320.572 236.629C322.161 237.425 323.755 239.812 324.548 241.402C325.345 242.199 325.345 242.992 325.345 242.992C323.755 243.789 327.732 246.968 328.529 247.765C329.326 249.355 330.119 250.152 330.119 250.152C328.529 250.949 327.732 250.152 330.119 254.128C330.119 256.515 330.915 258.105 330.915 258.902C330.915 259.699 330.119 259.699 330.119 260.492C330.119 261.289 330.915 262.878 330.915 265.265C331.712 266.855 332.505 269.242 332.505 270.831C332.505 271.628 331.708 271.628 330.915 271.628C330.119 272.425 329.326 273.218 329.326 275.605C328.529 277.195 329.326 279.582 328.529 281.171C328.529 283.558 328.529 284.355 327.732 285.945C326.935 287.535 326.142 289.921 325.345 290.718C325.345 292.308 325.345 293.105 324.548 290.718C323.751 289.128 322.958 285.945 322.162 283.558C320.572 281.968 319.775 281.968 318.978 279.581C317.388 277.195 316.591 272.421 315.794 270.034C314.205 268.445 314.205 268.445 313.408 266.851C312.611 265.261 311.021 261.284 310.224 259.691C309.427 258.101 308.634 258.894 307.837 257.304C307.04 254.917 306.248 250.941 305.451 249.351C303.861 247.761 303.064 248.554 302.267 246.964C301.47 246.167 300.677 242.988 299.88 242.191C299.083 240.601 298.291 240.601 297.494 239.804C296.697 239.007 296.697 236.62 298.291 235.827C299.88 232.644 303.857 234.238 306.244 235.827C308.63 237.417 313.404 242.988 314.994 246.964C321.357 263.667 322.947 266.054 322.947 276.398V277.988C326.923 258.101 312.607 240.601 312.607 237.422C313.404 235.036 318.97 235.832 320.56 236.625L320.572 236.629Z" fill="#034732"/>
<path fill-rule="evenodd" clip-rule="evenodd" d="M203.642 244.589C205.231 244.589 206.028 244.589 208.415 245.385C210.005 245.385 209.212 246.182 210.005 247.772C213.188 250.159 213.981 253.339 214.778 254.135C216.368 254.932 217.165 254.932 217.962 254.135C218.759 252.546 220.348 250.159 221.938 249.362C226.712 247.772 233.075 253.339 234.665 257.315C235.462 258.905 233.869 258.112 235.462 259.702C236.259 261.292 245.802 268.452 245.009 270.042C244.212 270.839 241.826 270.042 242.622 270.839C242.622 271.636 250.576 278.792 250.576 283.566C250.576 284.363 248.986 283.566 248.189 284.363C248.189 285.159 248.986 287.546 250.576 290.726C254.552 301.066 252.165 297.089 252.165 301.863C252.165 303.453 253.755 306.636 253.755 309.816C255.345 318.566 251.368 315.382 250.572 316.179C248.982 317.769 245.798 339.245 241.822 339.245C240.232 338.448 239.435 336.062 237.845 332.882C234.661 326.519 229.892 325.722 229.095 324.132C228.298 321.745 226.708 316.972 225.118 315.382C223.529 313.792 221.935 314.585 220.345 312.995C217.958 310.609 215.572 305.042 213.185 302.655C211.595 300.269 210.001 301.065 208.411 298.679C206.025 296.292 203.638 290.726 201.251 287.542C199.661 285.155 198.068 285.952 196.478 283.565C194.888 281.178 193.294 276.405 191.704 274.018C190.115 271.631 187.728 271.631 186.931 269.245C186.134 266.858 185.341 262.085 184.544 259.698C183.747 257.311 182.158 257.311 182.158 254.924C181.361 248.561 195.681 244.584 201.248 248.561C211.588 258.108 226.701 280.377 236.248 299.471C238.634 304.245 238.634 311.405 239.431 311.405C239.431 311.405 239.431 307.429 238.634 301.858C236.248 285.948 202.837 244.585 203.634 244.585L203.642 244.589Z" fill="#034732"/>
<path fill-rule="evenodd" clip-rule="evenodd" d="M138.412 229.469C135.228 231.058 130.459 231.058 128.865 231.855C128.068 233.445 129.662 236.629 132.048 239.808C134.435 242.992 137.615 246.969 137.615 251.742C138.412 257.309 136.025 264.469 133.638 270.039C132.048 275.606 129.662 278.789 128.072 279.586C126.482 280.383 124.888 278.789 123.298 279.586C121.709 280.383 119.322 283.563 115.345 287.539C112.162 292.313 105.798 297.879 103.411 299.473C100.228 301.063 99.4346 298.677 97.0479 298.677C94.6612 298.677 89.8877 300.266 83.5249 302.653C77.1616 304.243 68.4119 305.837 65.2279 305.837C61.2513 305.837 62.8412 304.247 61.2513 303.45C59.6614 302.653 54.0911 303.45 48.5243 303.45C42.9579 304.247 36.5903 305.04 34.2083 304.247C31.0247 303.45 32.6185 300.27 31.0247 298.681C27.8411 295.497 7.9587 293.907 2.3877 292.317C-0.7959 291.52 -0.7959 289.931 2.3877 286.751C4.7744 282.774 10.3408 276.411 13.5247 270.048C16.7083 264.481 18.2981 258.114 17.5013 255.732C16.7044 253.345 14.3177 254.142 14.3177 252.548C14.3177 251.751 17.5013 247.775 22.2708 241.411C27.0442 235.845 34.2048 227.888 36.5868 223.114C38.9735 218.341 37.3837 217.548 38.9735 215.161C41.3602 212.774 46.9266 209.595 54.0865 208.001C60.4498 206.411 69.1995 206.411 73.1765 204.817C76.3601 203.228 74.7663 200.044 76.3601 199.251C77.9499 197.661 81.9265 197.661 87.4971 199.251C93.0635 200.048 99.4311 201.638 105.794 204.817C111.361 207.204 116.931 211.978 120.11 215.157C123.294 218.341 124.884 222.318 121.7 224.704C119.313 227.091 109.766 232.657 102.61 235.841C86.6999 243.001 70.7939 249.364 57.2699 259.704C50.9066 265.271 43.7469 270.044 40.5669 274.02C38.1802 277.997 35.7935 279.587 38.9771 277.204C42.1607 274.817 47.7271 268.454 58.0671 262.091C67.614 255.728 77.9541 250.954 87.5011 246.181C97.048 241.407 108.185 236.634 113.751 233.454C119.318 230.27 122.501 228.68 127.274 226.294C132.048 224.704 137.614 223.11 140.001 223.11C143.185 222.313 143.185 222.313 142.388 223.907C142.388 224.704 140.798 227.884 138.411 229.473L138.412 229.469Z" fill="#034732"/>
<path fill-rule="evenodd" clip-rule="evenodd" d="M125.682 194.469C124.885 193.672 110.569 181.742 110.569 181.742C97.0456 175.378 82.7286 178.558 75.5686 161.855C70.7952 152.308 70.7952 137.195 72.385 126.058C72.385 124.468 72.385 124.468 70.7952 123.671C66.8186 122.081 58.8612 120.487 54.0922 122.081C51.7055 122.878 55.682 124.468 49.3188 124.468C46.1352 124.468 41.3657 123.671 39.7719 124.468C37.3852 125.265 38.1821 126.854 38.1821 127.651C37.3852 128.448 35.7954 128.448 32.6157 127.651C30.229 127.651 26.2524 127.651 21.4787 126.854C16.7053 126.854 11.1387 126.058 10.3417 128.444C9.54483 130.034 14.3183 134.011 16.705 139.581C19.8886 144.355 21.4784 149.921 21.4784 152.308C21.4784 154.695 19.0917 153.898 19.8886 156.285C19.8886 158.672 23.0722 163.445 26.2519 167.422C35.0019 179.356 29.4355 172.988 29.4355 176.969C29.4355 177.766 31.8222 180.945 35.7988 183.332C39.7754 186.516 45.3457 188.898 46.1388 191.285C47.7286 192.875 45.3419 192.875 46.1388 193.672C46.9357 194.469 50.1154 195.262 54.0919 196.059C58.0685 196.059 62.045 195.262 63.6388 196.059C64.4357 196.059 63.6388 197.648 65.2286 197.648C66.0255 197.648 70.002 196.852 73.1817 195.262C83.5217 189.695 85.1157 188.898 97.0447 192.875C101.818 193.672 108.979 194.465 108.182 194.465C102.615 191.281 87.4977 184.125 83.5217 183.328C54.8847 175.375 48.5217 163.441 34.2057 143.555C31.819 139.578 29.4323 138.781 30.2291 139.578C31.8189 140.375 43.7521 153.101 46.9321 157.078C52.4985 162.645 54.0923 165.031 59.6591 169.012C63.6357 172.196 69.9991 175.375 81.1361 180.149C95.4521 185.716 108.976 189.696 122.499 196.852C126.476 199.239 128.066 196.852 125.683 194.465L125.682 194.469Z" fill="#034732"/>
<path fill-rule="evenodd" clip-rule="evenodd" d="M159.092 237.429C162.275 234.245 165.455 235.839 167.045 235.839C168.635 236.636 168.635 236.636 166.248 240.612C142.385 285.159 133.635 315.385 126.475 364.702C125.678 369.476 125.678 371.065 128.065 370.269C141.588 364.702 147.952 358.335 165.452 358.335H171.815C173.405 359.131 173.405 361.518 172.612 361.518C172.612 362.315 170.225 361.518 166.249 362.315C154.315 365.499 139.202 367.881 132.046 379.815C128.862 384.588 122.499 404.475 116.136 422.768L103.409 415.608C108.182 402.881 112.159 390.948 112.955 387.768C118.522 359.928 121.705 331.291 128.068 304.245C132.842 285.155 140.002 271.632 147.955 254.132C152.729 246.179 155.909 239.816 159.092 237.429L159.092 237.429Z" fill="#034732"/>
<path fill-rule="evenodd" clip-rule="evenodd" d="M167.042 350.379C163.065 347.992 164.655 336.856 167.838 333.676C167.838 332.879 168.635 331.289 170.225 328.902C171.815 325.719 173.409 322.539 174.999 320.949C175.795 319.359 176.588 320.152 177.385 320.152C178.975 320.949 185.338 314.586 187.725 313.789C190.909 311.402 190.112 312.992 191.702 314.586C193.292 315.383 199.655 310.609 204.429 309.812C206.019 309.015 208.405 308.223 209.202 309.015C210.792 310.605 206.816 317.765 207.612 318.562C207.612 319.359 208.409 319.359 208.409 320.152C208.409 321.742 204.433 325.719 203.636 332.879C203.636 334.469 198.863 336.856 198.07 338.446C197.273 339.242 198.07 340.035 198.07 340.832C197.273 342.422 187.73 347.992 186.933 348.785V350.375C185.343 352.762 169.433 357.535 167.843 356.738C161.479 352.762 202.843 315.375 202.046 316.172C198.862 317.762 192.499 323.333 188.523 326.512C184.546 329.696 167.046 350.375 167.046 350.375L167.042 350.379Z" fill="#034732"/>
<path fill-rule="evenodd" clip-rule="evenodd" d="M175.792 359.129C176.589 359.129 178.975 358.332 181.358 357.539C186.131 355.949 198.061 344.812 199.655 346.402C200.452 347.199 210.792 338.449 211.589 340.038C211.589 340.038 211.589 340.835 212.386 340.835C216.363 342.425 221.933 340.835 226.702 343.222C229.886 344.812 231.475 346.406 236.249 347.995C239.432 348.792 241.815 350.382 242.612 351.179C243.409 351.976 242.612 351.976 244.202 353.566C245.792 354.363 249.768 355.952 252.952 357.542C256.136 359.929 257.725 361.519 258.518 362.316C259.315 363.113 257.721 363.113 255.335 362.316C252.948 362.316 248.971 361.519 247.382 361.519C245.792 362.316 246.585 363.109 245.792 363.906C244.995 365.495 238.632 364.702 236.245 364.702C235.448 365.499 236.245 365.499 235.448 366.292C234.651 367.882 229.085 367.089 227.495 368.679C226.698 369.476 228.292 370.269 227.495 370.269C227.495 371.066 218.745 367.882 217.155 367.882C215.565 368.679 216.358 369.472 215.565 370.269C213.178 371.066 204.428 366.292 201.249 365.495C199.659 365.495 199.659 366.292 199.659 366.292C198.07 367.089 188.522 363.109 188.522 359.929C187.725 359.132 189.319 358.339 193.296 357.542C214.773 352.769 220.343 355.156 240.23 356.745C241.82 356.745 219.546 352.769 201.253 354.359C196.479 355.155 192.503 355.948 189.319 356.745C186.135 358.335 178.979 363.109 175.796 361.519C174.206 360.722 174.206 359.929 175.796 359.132L175.792 359.129Z" fill="#034732"/>
<path fill-rule="evenodd" clip-rule="evenodd" d="M170.232 363.909L171.821 365.498C176.595 370.272 178.185 386.182 181.368 391.748C181.368 392.545 178.185 376.635 175.005 368.682C175.005 367.885 173.415 366.296 173.415 365.499C175.802 363.909 180.575 368.682 181.368 371.065C182.958 375.042 182.958 374.249 185.345 377.428C185.345 377.428 186.935 384.589 186.935 385.381C187.732 386.178 186.935 386.178 186.935 387.768C186.935 390.155 188.525 393.335 189.321 394.928C190.118 397.315 190.911 397.315 190.118 397.315C190.118 398.112 188.529 397.315 188.529 398.905C189.325 400.495 190.915 404.471 192.505 406.858C194.892 410.042 196.482 410.835 196.482 411.631C196.482 412.428 194.095 411.631 190.915 410.042C190.118 409.245 180.575 402.881 179.778 402.089C178.981 401.292 174.212 394.928 173.415 394.928C173.415 393.339 171.825 389.362 171.825 387.768C171.028 385.381 170.235 385.381 170.235 383.792C169.439 382.202 169.439 379.018 169.439 378.225C168.642 376.635 167.849 377.428 167.849 375.838V371.065C168.646 368.678 167.052 368.678 167.052 367.088C167.052 365.499 168.642 365.499 168.642 363.905C168.642 362.315 169.439 363.108 170.231 363.905L170.232 363.909Z" fill="#034732"/>
</svg>
